PathFileType	4	(X/Y/Z)	C:\Users\Basilio\Documents\Thesis Gigler\squatting_fais\c3dfiles\036\SJ_pre3\markers_experimental.trc
DataRate	CameraRate	NumFrames	NumMarkers	Units	OrigDataRate	OrigDataStartFrame	OrigNumFrames
200.000000	200.000000	4	61	mm	200.000000	787	2099
Frame#	Time	FHD			LBHD			RBHD			C7			T10			CLAV			LSHO			LUUPA			LMUPA			LDUPA			LLEP			LMEP			LRAD			LUL			LRFIN			RSHO			RUPA1			RMUPA			RDUPA			RLEP			RMEP			RRAD			RUL			RUFIN			LASI			RASI			USACR			LSACR			RSACR			LTHI1			LTHI2			LTHI3			LTHI4			LLFC			LMFC			LTIB1			LTIB2			LTIB3			LTIB4			LLMAL			LMMAL			LHEE			LMT1			LMT2			LMT5			RTHI			RTHI2			RTHI3			RTHI4			RLFC			RMFC			RTIB1			RTIB2			RTIB3			RTIB4			RLMAL			RMMAL			RHEE			RMT1			RMT2			RMT5			
		X1	Y1	Z1	X2	Y2	Z2	X3	Y3	Z3	X4	Y4	Z4	X5	Y5	Z5	X6	Y6	Z6	X7	Y7	Z7	X8	Y8	Z8	X9	Y9	Z9	X10	Y10	Z10	X11	Y11	Z11	X12	Y12	Z12	X13	Y13	Z13	X14	Y14	Z14	X15	Y15	Z15	X16	Y16	Z16	X17	Y17	Z17	X18	Y18	Z18	X19	Y19	Z19	X20	Y20	Z20	X21	Y21	Z21	X22	Y22	Z22	X23	Y23	Z23	X24	Y24	Z24	X25	Y25	Z25	X26	Y26	Z26	X27	Y27	Z27	X28	Y28	Z28	X29	Y29	Z29	X30	Y30	Z30	X31	Y31	Z31	X32	Y32	Z32	X33	Y33	Z33	X34	Y34	Z34	X35	Y35	Z35	X36	Y36	Z36	X37	Y37	Z37	X38	Y38	Z38	X39	Y39	Z39	X40	Y40	Z40	X41	Y41	Z41	X42	Y42	Z42	X43	Y43	Z43	X44	Y44	Z44	X45	Y45	Z45	X46	Y46	Z46	X47	Y47	Z47	X48	Y48	Z48	X49	Y49	Z49	X50	Y50	Z50	X51	Y51	Z51	X52	Y52	Z52	X53	Y53	Z53	X54	Y54	Z54	X55	Y55	Z55	X56	Y56	Z56	X57	Y57	Z57	X58	Y58	Z58	X59	Y59	Z59	X60	Y60	Z60	X61	Y61	Z61	

788	3.935	65.89269256591798	1118.064086914063	-961.2705078125002	-103.2021026611328	1060.2197265625	-1011.848022460938	-46.47737503051759	1084.756591796875	-873.2857666015627	nan	nan	nan	-353.0220642089844	842.2627563476565	-946.1108398437502	-37.27224731445313	874.866882324219	-941.3392333984377	-35.95682525634766	931.3013916015627	-1078.751708984375	-127.7685775756836	894.557800292969	-1225.6083984375	-139.2446594238282	845.952819824219	-1229.578491210938	-173.3394317626953	869.7519531250002	-1273.968872070313	-220.319320678711	839.587097167969	-1298.609619140625	-260.8343505859376	893.7867431640627	-1284.268676757813	-369.8015441894532	675.3067016601564	-1220.652954101563	-390.0383605957032	727.9968261718751	-1177.920776367188	-369.8544006347657	688.7434692382814	-1131.861206054688	-41.82920837402344	946.1514282226565	-808.1287841796877	-124.4560775756836	911.568054199219	-670.8807373046876	-125.5085601806641	861.6577758789065	-668.3886108398439	-159.3549194335938	875.1639404296877	-621.4389038085939	-212.1644134521485	829.495056152344	-588.4292602539064	-271.3932189941407	873.9538574218752	-607.5750732421876	-370.8843383789063	712.1570434570314	-714.9620361328126	-347.1075134277344	658.8248901367189	-682.2655029296876	-360.3069458007813	680.1070556640626	-764.9356079101564	nan	nan	nan	nan	nan	nan	-447.6541442871095	795.3438110351565	-949.0136718750002	-481.4884643554689	786.4851684570315	-974.8374023437502	-471.3951721191407	787.0230712890627	-919.6159667968752	-426.6503295898439	605.8277587890626	-1174.763427734375	-350.1695556640626	575.3630371093751	-1176.073974609375	-322.9382324218751	607.4635009765626	-1153.610473632813	-329.8562011718751	522.9698486328126	-1182.796875	-230.9292449951172	419.4597778320314	-1188.903198242188	-194.1384735107422	386.9490661621095	-1040.78173828125	-187.3087615966797	252.6199188232422	-1113.42724609375	-228.8489990234376	223.5226593017579	-1184.311645507813	-206.7991027832032	210.9055328369141	-1147.170776367188	-241.1389312744141	138.483154296875	-1116.564331054688	-320.5869750976563	81.01107025146486	-1172.29736328125	-300.0102233886719	83.41479492187501	-1088.688598632813	-377.0836791992188	57.35240173339845	-1134.367431640625	-186.7102355957032	54.70077133178712	-1110.23779296875	-175.9621734619141	56.78150177001955	-1158.416625976563	-217.8711547851563	34.41698074340821	-1205.552490234375	-443.1428222656251	522.8546142578126	-712.6316528320314	-378.1340942382813	519.7587890625001	-695.5869750976564	-359.4700927734376	546.8926391601564	-695.2879638671876	-327.5653076171876	454.5624084472657	-694.2515869140626	-226.8151397705079	405.0357360839845	-680.0848388671876	-179.6910095214844	416.0296020507814	-821.4321289062502	-196.0628051757813	258.3283081054688	-728.2682495117189	-289.9005126953126	207.2709655761719	-689.2554321289064	-251.1794738769532	193.8209838867188	-710.7016601562501	-257.4430847167969	146.7473754882813	-747.2022094726564	-365.8735351562501	82.56329345703126	-735.7634277343751	-323.1499328613282	82.5598831176758	-809.3240966796877	-408.5386657714845	56.57158660888673	-778.126159667969	-211.3942565917969	51.33013153076173	-763.5371704101564	-219.6352996826172	58.30294799804689	-714.1424560546876	-264.5022277832032	35.55344772338868	-674.5353393554689	
789	3.94	66.20054626464845	1117.221313476563	-960.9367675781252	-103.1172256469727	1059.410278320313	-1011.890441894531	-46.07889556884766	1084.12890625	-873.075378417969	nan	nan	nan	-353.1941528320313	842.1495361328127	-946.0137329101565	-37.30614089965821	874.0300292968752	-941.2410278320315	-35.38070678710938	930.5552368164065	-1078.626098632813	-127.4743576049805	893.8579711914065	-1225.578247070313	-139.0677642822266	845.3687744140627	-1229.539916992188	-173.4640197753907	868.968688964844	-1273.609252929688	-220.3260345458985	839.1624145507815	-1298.628540039063	-260.5562438964844	893.377380371094	-1284.2548828125	-369.7782592773438	675.0704956054689	-1220.595703125	-390.1043701171876	727.7696533203126	-1177.861083984375	-369.7960205078126	688.5145874023439	-1131.70703125	-41.6385612487793	945.3427734375002	-808.1091918945315	-124.1538238525391	910.9305419921877	-670.8975830078126	-125.3222732543946	860.904479980469	-668.3180541992189	-158.9608001708985	874.7368774414065	-621.5064697265626	-212.0881652832032	829.159606933594	-588.4130859375001	-271.0859680175782	873.448181152344	-607.4492187500001	-370.8787536621094	712.0126953125001	-714.9494018554689	-347.1065979003907	658.6347656250001	-682.2426147460939	-360.3947143554688	679.9691162109376	-764.9530029296876	nan	nan	nan	nan	nan	nan	-447.4683837890626	795.0595703125002	-949.0164794921877	-481.5241088867189	786.2237548828127	-974.8220825195315	-477.3877868652345	788.8460083007815	-919.1704711914065	-426.5861206054689	605.6452636718751	-1174.78271484375	-350.2301940917969	575.2237548828126	-1176.11328125	-322.9758605957032	607.3439941406251	-1153.567504882813	-329.7963867187501	522.8309936523439	-1182.807983398438	-230.0407714843751	419.5191345214845	-1188.80615234375	-193.9265747070313	386.889373779297	-1040.817504882813	-187.3106079101563	252.5959777832032	-1113.464599609375	-228.4242553710938	223.7482147216797	-1184.483764648438	-206.8001098632813	210.9063415527344	-1147.17138671875	-241.1452331542969	138.476058959961	-1116.5693359375	-320.6231994628907	81.0192108154297	-1172.274536132813	-300.0037231445313	83.42983245849611	-1088.703735351563	-377.0937194824219	57.34986114501955	-1134.362670898438	-186.76025390625	54.79498672485353	-1110.15771484375	-175.7247467041016	56.63728713989259	-1158.450439453125	-217.7962646484376	34.43313598632813	-1205.546142578125	-443.1338806152345	522.5552368164064	-712.5031738281251	-378.1296691894532	519.6615600585939	-695.5038452148439	-359.4543151855469	546.7775268554689	-695.2034912109376	-327.5674438476563	454.4486083984376	-694.0706787109376	-226.6415710449219	405.0041809082032	-680.1182250976564	-179.6259155273438	416.009979248047	-821.3513183593752	-196.0294342041016	258.2961425781251	-728.2360229492189	-289.9359436035157	207.2419738769532	-689.2227783203126	-251.1395416259766	193.7702636718751	-710.6871948242189	-257.4383239746094	146.8292694091797	-747.1897583007814	-365.8908691406251	82.58876800537111	-735.7547607421876	-323.1923828125001	82.55369567871095	-809.3247680664065	-408.6846313476564	56.6797561645508	-778.3225097656252	-211.4228515625001	51.28360748291017	-763.4864501953126	-219.7004089355469	58.37374114990236	-714.1848144531251	-264.4970092773438	35.56217575073243	-674.5371704101564	
790	3.945	67.05795288085939	1116.322509765625	-960.9185791015627	-102.6631698608399	1058.903076171875	-1011.776489257813	-45.4861068725586	1083.322998046875	-872.935241699219	nan	nan	nan	-353.0031127929688	841.799255371094	-945.981872558594	-36.94215774536134	873.2404785156252	-941.2359619140627	-34.97428131103516	929.8587036132815	-1078.53857421875	-127.3437805175782	893.132751464844	-1225.564331054688	-138.8108215332032	844.5711059570315	-1229.569580078125	-173.2339782714844	868.248718261719	-1273.418212890625	-220.0121459960938	838.557312011719	-1298.388671875	-260.1018371582032	892.875671386719	-1284.260498046875	-369.9059753417969	674.7598876953126	-1220.454467773438	-390.0481567382814	727.5640869140626	-1177.742431640625	-369.6364746093751	688.2763671875001	-1131.595458984375	-41.09281158447266	944.6470336914065	-808.2173461914065	-123.8390655517578	910.3445434570315	-670.7697753906251	-124.963851928711	860.273132324219	-668.2551269531251	-158.7982177734375	874.1038208007815	-621.4111328125001	-211.9008178710938	828.8123168945315	-588.3959960937501	-270.8301086425782	873.030944824219	-607.4589233398439	-370.8885498046876	711.8771362304689	-714.9129638671876	-347.1329040527344	658.4943237304689	-682.1594238281251	-360.4912719726563	679.7452392578126	-764.8631591796876	nan	nan	nan	nan	nan	nan	-447.2708435058595	794.676940917969	-948.892517089844	-481.4102783203126	785.8772583007815	-974.7607421875002	-477.845184326172	788.7197265625002	-919.0916748046877	-426.6039123535157	605.4394531250001	-1174.747192382813	-350.1168518066407	575.1052246093751	-1176.148071289063	-322.9484252929688	607.2067871093751	-1153.556762695313	-329.7557373046876	522.7681884765626	-1182.861572265625	-229.9362792968751	419.4917602539064	-1188.877075195313	-193.7887115478516	386.6905822753907	-1040.947509765625	-187.2624816894532	252.5374603271485	-1113.428344726563	-228.3383178710938	223.6818237304688	-1184.55322265625	-206.7470397949219	210.8384552001954	-1147.138549804688	-241.0716400146485	138.4463500976563	-1116.541381835938	-320.5782470703126	81.00464630126955	-1172.242919921875	-300.0078735351563	83.45217895507814	-1088.694091796875	-377.1129760742188	57.4044761657715	-1134.327514648438	-186.7347717285157	54.68741607666017	-1110.206420898438	-175.9234466552735	56.76870346069337	-1158.419555664063	-217.7723846435547	34.45804595947266	-1205.555541992188	-443.123016357422	522.3505859375001	-712.4305419921876	-378.1684875488282	519.5011596679689	-695.4254760742189	-359.4717407226563	546.6115112304689	-695.1028442382814	-327.5564270019532	454.3605041503907	-693.9649047851564	-226.5416412353516	404.876678466797	-680.0311279296876	-179.5827178955078	416.020233154297	-821.2651977539065	-196.0202178955079	258.2420043945313	-728.1176147460939	-289.8261718750001	207.2204895019532	-689.1866455078126	-251.1055297851563	193.7096252441407	-710.6439208984376	-257.3959960937501	146.7974700927735	-747.1659545898439	-365.8736877441407	82.5856170654297	-735.7651977539064	-323.1002502441407	82.57083892822267	-809.326110839844	-408.7400817871095	56.54674911499025	-778.259216308594	-211.4246978759766	51.28261947631837	-763.4849243164064	-219.6998138427735	58.36444473266603	-714.1621704101564	-264.5001525878907	35.5559196472168	-674.5322875976564	
791	3.95	67.4193801879883	1115.16357421875	-960.5810546875002	-102.2833938598633	1058.281005859375	-1011.744567871094	-44.88622283935548	1082.599731445313	-872.9697875976565	nan	nan	nan	-352.8022460937501	841.3900146484377	-945.9631958007815	-36.76408386230469	872.490417480469	-941.1372070312502	-34.54396057128907	928.9708251953127	-1078.628173828125	-127.1134490966797	892.3718261718752	-1225.439697265625	-138.5894470214844	843.941589355469	-1229.5830078125	-172.9108123779297	867.5446777343752	-1273.294189453125	-219.7651824951172	838.067810058594	-1298.57080078125	-259.5989074707032	892.2279052734377	-1284.27294921875	-370.0493469238282	674.4782104492189	-1220.364013671875	-389.9587402343751	727.3668212890626	-1177.645629882813	-369.6016845703126	688.0287475585939	-1131.492919921875	-40.93905639648438	944.042907714844	-808.146179199219	-123.3817977905274	909.794616699219	-670.7047119140626	-124.7601089477539	859.795349121094	-668.3316040039064	-158.7783508300782	873.563659667969	-621.2595825195314	-211.7139434814454	828.269470214844	-588.2852172851564	-270.6840209960938	872.773620605469	-607.3334960937501	-370.8108825683594	711.7155151367189	-714.8785400390626	-347.1329650878907	658.3206176757814	-682.0750122070314	-360.5768737792969	679.4836425781251	-764.8500366210939	nan	nan	nan	nan	nan	nan	-447.1887512207032	794.3004150390627	-948.867614746094	-481.6792907714845	785.4477539062502	-974.5936279296877	-480.2980346679689	789.3164062500002	-918.9639282226565	-426.6846313476564	605.1997070312501	-1174.766479492188	-350.2360839843751	574.9854125976564	-1176.144287109375	-322.9399719238282	607.0038452148439	-1153.533569335938	-329.7352294921876	522.6737670898439	-1182.853393554688	-230.4814910888672	419.3939208984376	-1189.052368164063	-193.7969818115235	386.5691528320314	-1041.01025390625	-187.3809661865235	252.5142211914063	-1113.486572265625	-228.2682495117188	223.6588287353516	-1184.591674804688	-206.7475738525391	210.7949523925782	-1147.186645507813	-241.0686340332032	138.443588256836	-1116.592529296875	-320.6113281250001	81.09766387939455	-1172.317504882813	-299.9963378906251	83.42599487304689	-1088.678344726563	-377.0974426269532	57.41156005859376	-1134.327392578125	-186.7031707763672	54.68418121337892	-1110.216064453125	-176.1594390869141	56.84194564819337	-1158.444458007813	-217.8628082275391	34.44016647338868	-1205.556274414063	-443.1702575683595	522.1636352539064	-712.2926025390626	-378.1083679199219	519.3444824218751	-695.3504028320314	-359.4196166992188	546.3831176757814	-695.0083007812501	-327.5385131835938	454.2579956054689	-693.8219604492189	-226.4678802490235	404.7809143066407	-679.8992919921876	-179.4619903564453	415.9816284179689	-821.0981445312502	-195.9833679199219	258.2265625000001	-728.0740356445314	-289.8409118652344	207.2099914550782	-689.1573486328126	-251.107406616211	193.6793670654297	-710.5888061523439	-257.3996887207032	146.8102569580078	-747.1437377929689	-365.8820190429688	82.60295867919923	-735.7516479492189	-323.0807495117188	82.57409667968751	-809.3264160156252	-408.7317504882814	56.53780364990236	-778.2568969726565	-211.4030303955079	51.28778076171876	-763.4586181640626	-219.6977996826172	58.31313705444337	-714.1428833007814	-264.5117797851563	35.5514259338379	-674.5249023437501	
